# xmcd CD database file
#
# Track frame offsets:
#	150
#	24027
#	48595
#	76185
#	97902
#	124520
#	152795
#	171055
#	192682
#	214885
#
# Disc length: 3163 seconds
#
# Revision: 0
# Processed by: cddbd v1.5.1PL0 Copyright (c) Steve Scherf et al.
# Submitted via: CDex 1.51
#
DISCID=780c590a
DTITLE=石川優子 - 月曜日のシャンプー
DYEAR=1900
DGENRE=JPop
TTITLE0=Lonely Symphony
TTITLE1=1983・夏
TTITLE2=魚たちの週末
TTITLE3=ふたりの関係
TTITLE4=真夜中のメリーゴーランド
TTITLE5=ラッシュアワー・モニュメント
TTITLE6=パステルの行方
TTITLE7=異国の詩人
TTITLE8=明日へ駆ける翼
TTITLE9=Still
EXTD=
EXTT0=
EXTT1=
EXTT2=
EXTT3=
EXTT4=
EXTT5=
EXTT6=
EXTT7=
EXTT8=
EXTT9=
PLAYORDER=
